<svg xmlns="http://www.w3.org/2000/svg" viewBox="0 0 64 64" fill="none">
  <rect width="64" height="64" rx="16" fill="#0a0a0a"/>
  <circle cx="32" cy="32" r="22" fill="#dc2626"/>
  <path d="M39.5 20.8c-1.8-1.7-4.4-2.8-7.7-2.8-6 0-10.3 3.3-10.3 8 0 3.6 2.2 5.8 7.3 7l3.2.8c2.4.6 3.6 1.6 3.6 3.1 0 1.9-1.9 3.2-4.8 3.2-3.1 0-5.5-1.2-7.7-3.2l-3.5 4.2c2.8 2.8 6.7 4.3 11.2 4.3 6.7 0 11-3.4 11-8.7 0-4.1-2.5-6.4-7.5-7.6l-3.3-.8c-2.5-.6-3.5-1.5-3.5-2.9 0-1.7 1.7-2.9 4.2-2.9 2.4 0 4.5.8 6.3 2.3l3.5-4Z" fill="#0a0a0a"/>
</svg>
